<svg width="60" height="61" viewBox="0 0 60 61" fill="none" xmlns="http://www.w3.org/2000/svg">
<g clip-path="url(#clip0_2500_3)">
<path d="M29.9 28.5C29.7917 28.5033 29.6875 28.5483 29.6108 28.6267L27.4125 30.8183L26.0583 29.4683C25.6792 29.0733 25.0667 29.6833 25.4625 30.0617L27.115 31.71C27.2792 31.8742 27.5458 31.8742 27.7108 31.71L30.2067 29.2208C30.4817 28.9542 30.2792 28.5 29.9008 28.5H29.9ZM17.4167 31.8333H19.9167C20.1475 31.8333 20.3333 32.0192 20.3333 32.25C20.3333 32.4808 20.1475 32.6667 19.9167 32.6667H17.4167C17.1858 32.6667 17 32.4808 17 32.25C17 32.0192 17.1858 31.8333 17.4167 31.8333ZM17.4167 28.5H19.9167C20.1475 28.5 20.3333 28.6858 20.3333 28.9167C20.3333 29.1475 20.1475 29.3333 19.9167 29.3333H17.4167C17.1858 29.3333 17 29.1475 17 28.9167C17 28.6858 17.1858 28.5 17.4167 28.5ZM17.4167 25.1667H19.9167C20.1475 25.1667 20.3333 25.3525 20.3333 25.5833C20.3333 25.8142 20.1475 26 19.9167 26H17.4167C17.1858 26 17 25.8142 17 25.5833C17 25.3525 17.1858 25.1667 17.4167 25.1667ZM37.4167 34.3333C36.2708 34.3333 35.3333 35.2708 35.3333 36.4167C35.3333 37.5625 36.2708 38.5 37.4167 38.5C38.5625 38.5 39.5 37.5625 39.5 36.4167C39.5 35.2708 38.5625 34.3333 37.4167 34.3333ZM37.4167 35.1667C38.1117 35.1667 38.6667 35.7217 38.6667 36.4167C38.6667 37.1117 38.1117 37.6667 37.4167 37.6667C36.7217 37.6667 36.1667 37.1117 36.1667 36.4167C36.1667 35.7217 36.7217 35.1667 37.4167 35.1667ZM26.5833 34.3333C25.4375 34.3333 24.5 35.2708 24.5 36.4167C24.5 37.5625 25.4375 38.5 26.5833 38.5C27.7292 38.5 28.6667 37.5625 28.6667 36.4167C28.6667 35.2708 27.7292 34.3333 26.5833 34.3333ZM26.5833 35.1667C27.2783 35.1667 27.8333 35.7217 27.8333 36.4167C27.8333 37.1117 27.2783 37.6667 26.5833 37.6667C25.8883 37.6667 25.3333 37.1117 25.3333 36.4167C25.3333 35.7217 25.8883 35.1667 26.5833 35.1667ZM22.4167 23.5C21.7317 23.5 21.1667 24.065 21.1667 24.75V33.9167C21.1667 34.6017 21.7317 35.1667 22.4167 35.1667H24.0833C24.6467 35.175 24.6467 34.325 24.0833 34.3333H22.4167C22.1783 34.3333 22 34.155 22 33.9167V24.75C22 24.5117 22.1783 24.3333 22.4167 24.3333H33.25C33.4883 24.3333 33.6667 24.5117 33.6667 24.75V34.3333H29.0833C28.5333 34.3333 28.5433 35.175 29.0833 35.1667H34.9167C35.4667 35.1667 35.4617 34.3333 34.9167 34.3333H34.5V26.8333H38.0225L41.1667 31.7467V33.9167C41.1667 34.155 40.9883 34.3333 40.75 34.3333H39.9167C39.3717 34.3333 39.3717 35.1667 39.9167 35.1667H40.75C41.435 35.1667 42 34.6017 42 33.9167V31.625C42 31.5458 41.9775 31.4667 41.935 31.4L38.6017 26.1917C38.525 26.0725 38.3933 26 38.25 26H34.5V24.75C34.5 24.065 33.935 23.5 33.25 23.5H22.4167Z" fill="black"/>
</g>
<circle cx="30" cy="30.5" r="29.5" stroke="black"/>
<defs>
<clipPath id="clip0_2500_3">
<rect width="25" height="25" fill="white" transform="translate(17 18.5)"/>
</clipPath>
</defs>
</svg>
