<svg width="60" height="61" viewBox="0 0 60 61" fill="none" xmlns="http://www.w3.org/2000/svg">
<circle cx="30" cy="30.5" r="29.5" stroke="black"/>
<path d="M30.05 31.0819C30.05 30.6677 29.7142 30.3319 29.3 30.3319C28.8858 30.3319 28.55 30.6677 28.55 31.0819H30.05ZM29.3 37.9999H28.55C28.55 38.2489 28.6736 38.4817 28.8799 38.6212C29.0862 38.7607 29.3483 38.7887 29.5794 38.6959L29.3 37.9999ZM35.044 35.6939L35.3234 36.3899C35.6077 36.2758 35.794 36.0002 35.794 35.6939H35.044ZM35.794 30.8999C35.794 30.4857 35.4582 30.1499 35.044 30.1499C34.6298 30.1499 34.294 30.4857 34.294 30.8999H35.794ZM29.7554 30.486C29.4263 30.2345 28.9556 30.2974 28.7041 30.6265C28.4526 30.9556 28.5155 31.4263 28.8446 31.6778L29.7554 30.486ZM31.348 32.6469L30.8926 33.2428C31.1156 33.4132 31.415 33.4449 31.6687 33.3249L31.348 32.6469ZM35.3617 31.5779C35.7361 31.4007 35.8961 30.9536 35.719 30.5792C35.5418 30.2048 35.0947 30.0448 34.7203 30.2219L35.3617 31.5779ZM29.0206 30.3859C28.6362 30.5402 28.4497 30.9769 28.604 31.3613C28.7583 31.7457 29.195 31.9322 29.5794 31.7779L29.0206 30.3859ZM35.3234 29.4719C35.7078 29.3176 35.8943 28.8809 35.74 28.4965C35.5857 28.1121 35.149 27.9256 34.7646 28.0799L35.3234 29.4719ZM34.7647 29.4719C35.1491 29.6262 35.5858 29.4396 35.74 29.0552C35.8943 28.6708 35.7077 28.2341 35.3233 28.0799L34.7647 29.4719ZM29.5793 25.7749C29.1949 25.6206 28.7582 25.8072 28.604 26.1916C28.4497 26.576 28.6363 27.0127 29.0207 27.167L29.5793 25.7749ZM35.4115 28.1231C35.0505 27.9202 34.5932 28.0483 34.3902 28.4094C34.1872 28.7705 34.3154 29.2277 34.6765 29.4307L35.4115 28.1231ZM37.095 29.9299L37.4153 30.6081C37.669 30.4883 37.8346 30.2369 37.8445 29.9565C37.8545 29.6761 37.7071 29.4136 37.4625 29.2761L37.095 29.9299ZM34.7203 30.2219C34.3458 30.3988 34.1859 30.8456 34.3628 31.2202C34.5397 31.5947 34.9871 31.7548 35.3617 31.5779L34.7203 30.2219ZM34.4849 28.2726C34.207 28.5798 34.2306 29.054 34.5377 29.332C34.8448 29.6099 35.3191 29.5863 35.5971 29.2792L34.4849 28.2726ZM37.5 26.0589L38.0561 26.5622C38.2259 26.3745 38.2897 26.1138 38.2255 25.8689C38.1614 25.624 37.9781 25.428 37.738 25.3477L37.5 26.0589ZM31.348 23.9999L31.586 23.2887C31.2926 23.1905 30.9689 23.2826 30.7711 23.5206L31.348 23.9999ZM28.7181 25.9916C28.4534 26.3102 28.4971 26.7831 28.8157 27.0478C29.1343 27.3125 29.6072 27.2688 29.8719 26.9502L28.7181 25.9916ZM23.2717 28.0799C22.8873 28.2341 22.7007 28.6708 22.855 29.0552C23.0092 29.4396 23.4459 29.6262 23.8303 29.4719L23.2717 28.0799ZM29.5743 27.167C29.9587 27.0127 30.1453 26.576 29.991 26.1916C29.8368 25.8072 29.4001 25.6206 29.0157 25.7749L29.5743 27.167ZM23.9185 29.4297C24.2796 29.2267 24.4078 28.7695 24.2048 28.4084C24.0018 28.0473 23.5446 27.9192 23.1835 28.1221L23.9185 29.4297ZM21.5 29.9289L21.1325 29.2751C20.888 29.4125 20.7407 29.6749 20.7505 29.9551C20.7603 30.2354 20.9256 30.4868 21.1791 30.6068L21.5 29.9289ZM23.2301 31.5778C23.6045 31.755 24.0516 31.5952 24.2289 31.2208C24.4061 30.8464 24.2463 30.3993 23.8719 30.222L23.2301 31.5778ZM23.8304 28.0799C23.446 27.9256 23.0093 28.1121 22.855 28.4965C22.7007 28.8809 22.8872 29.3176 23.2716 29.4719L23.8304 28.0799ZM29.0156 31.7779C29.4 31.9322 29.8367 31.7457 29.991 31.3613C30.1453 30.9769 29.9588 30.5402 29.5744 30.3859L29.0156 31.7779ZM22.9907 29.2745C23.2661 29.5839 23.7401 29.6115 24.0496 29.3362C24.359 29.0609 24.3867 28.5868 24.1113 28.2774L22.9907 29.2745ZM21.5 26.4709L21.2036 25.782C20.9823 25.8772 20.8202 26.073 20.7679 26.3082C20.7156 26.5434 20.7795 26.7895 20.9397 26.9695L21.5 26.4709ZM27.244 23.9999L27.8211 23.5209C27.6087 23.265 27.2531 23.1795 26.9476 23.311L27.244 23.9999ZM28.7179 26.9499C28.9824 27.2687 29.4553 27.3126 29.774 27.048C30.0927 26.7835 30.1367 26.3106 29.8721 25.9919L28.7179 26.9499ZM30.045 31.0829C30.045 30.6687 29.7092 30.3329 29.295 30.3329C28.8808 30.3329 28.545 30.6687 28.545 31.0829H30.045ZM29.295 37.9999L29.0156 38.6959C29.2467 38.7887 29.5088 38.7607 29.7151 38.6212C29.9214 38.4817 30.045 38.2489 30.045 37.9999H29.295ZM23.551 35.6939H22.801C22.801 36.0002 22.9873 36.2758 23.2716 36.3899L23.551 35.6939ZM24.301 30.8999C24.301 30.4857 23.9652 30.1499 23.551 30.1499C23.1368 30.1499 22.801 30.4857 22.801 30.8999H24.301ZM29.75 31.6781C30.0793 31.4269 30.1425 30.9562 29.8912 30.6269C29.64 30.2976 29.1693 30.2344 28.84 30.4857L29.75 31.6781ZM27.244 32.6469L26.9233 33.3249C27.1768 33.4448 27.476 33.4133 27.699 33.2431L27.244 32.6469ZM23.8719 30.222C23.4975 30.0449 23.0502 30.2048 22.873 30.5792C22.6959 30.9536 22.8557 31.4006 23.2301 31.5778L23.8719 30.222ZM28.55 31.0819V37.9999H30.05V31.0819H28.55ZM29.5794 38.6959L35.3234 36.3899L34.7646 34.9979L29.0206 37.3039L29.5794 38.6959ZM35.794 35.6939V30.8999H34.294V35.6939H35.794ZM28.8446 31.6778L30.8926 33.2428L31.8034 32.051L29.7554 30.486L28.8446 31.6778ZM31.6687 33.3249L35.3617 31.5779L34.7203 30.2219L31.0273 31.9689L31.6687 33.3249ZM29.5794 31.7779L35.3234 29.4719L34.7646 28.0799L29.0206 30.3859L29.5794 31.7779ZM35.3233 28.0799L29.5793 25.7749L29.0207 27.167L34.7647 29.4719L35.3233 28.0799ZM34.6765 29.4307L36.7275 30.5837L37.4625 29.2761L35.4115 28.1231L34.6765 29.4307ZM36.7747 29.2517L34.7203 30.2219L35.3617 31.5779L37.4153 30.6081L36.7747 29.2517ZM35.5971 29.2792L38.0561 26.5622L36.9439 25.5556L34.4849 28.2726L35.5971 29.2792ZM37.738 25.3477L31.586 23.2887L31.11 24.7111L37.262 26.7701L37.738 25.3477ZM30.7711 23.5206L28.7181 25.9916L29.8719 26.9502L31.9249 24.4792L30.7711 23.5206ZM23.8303 29.4719L29.5743 27.167L29.0157 25.7749L23.2717 28.0799L23.8303 29.4719ZM23.1835 28.1221L21.1325 29.2751L21.8675 30.5827L23.9185 29.4297L23.1835 28.1221ZM21.1791 30.6068L23.2301 31.5778L23.8719 30.222L21.8209 29.251L21.1791 30.6068ZM23.2716 29.4719L29.0156 31.7779L29.5744 30.3859L23.8304 28.0799L23.2716 29.4719ZM24.1113 28.2774L22.0603 25.9724L20.9397 26.9695L22.9907 29.2745L24.1113 28.2774ZM21.7964 27.1599L27.5404 24.6889L26.9476 23.311L21.2036 25.782L21.7964 27.1599ZM26.6669 24.4789L28.7179 26.9499L29.8721 25.9919L27.8211 23.5209L26.6669 24.4789ZM28.545 31.0829V37.9999H30.045V31.0829H28.545ZM29.5744 37.3039L23.8304 34.9979L23.2716 36.3899L29.0156 38.6959L29.5744 37.3039ZM24.301 35.6939V30.8999H22.801V35.6939H24.301ZM28.84 30.4857L26.7891 32.0507L27.699 33.2431L29.75 31.6781L28.84 30.4857ZM27.5647 31.9689L23.8719 30.222L23.2301 31.5778L26.9233 33.3249L27.5647 31.9689Z" fill="black" fill-opacity="0.8"/>
</svg>
