<svg width="60" height="61" viewBox="0 0 60 61" fill="none" xmlns="http://www.w3.org/2000/svg">
<circle cx="30" cy="30.5" r="29.5" stroke="black"/>
<path d="M22.9375 34.125C21.2018 34.7868 20.125 35.7089 20.125 36.7289C20.125 38.7426 24.3223 40.375 29.5 40.375C34.6777 40.375 38.875 38.7426 38.875 36.7289C38.875 35.7089 37.7981 34.7868 36.0625 34.125M29.5 27.875H29.5104M35.75 27.875C35.75 32.108 31.0625 34.125 29.5 37.25C27.9375 34.125 23.25 32.108 23.25 27.875C23.25 24.4232 26.0482 21.625 29.5 21.625C32.9518 21.625 35.75 24.4232 35.75 27.875ZM30.5417 27.875C30.5417 28.4503 30.0753 28.9167 29.5 28.9167C28.9247 28.9167 28.4583 28.4503 28.4583 27.875C28.4583 27.2997 28.9247 26.8333 29.5 26.8333C30.0753 26.8333 30.5417 27.2997 30.5417 27.875Z" stroke="black" stroke-width="1.16279" stroke-linecap="round" stroke-linejoin="round"/>
</svg>
